<svg width="262" height="262" viewBox="0 0 262 262" fill="none" xmlns="http://www.w3.org/2000/svg">
<circle cx="131" cy="131" r="131" fill="url(#paint0_linear_201_7)"/>
<path d="M206 131C206 140.849 204.06 150.602 200.291 159.701C196.522 168.801 190.997 177.069 184.033 184.033C177.069 190.997 168.801 196.522 159.701 200.291C150.602 204.06 140.849 206 131 206C121.151 206 111.398 204.06 102.299 200.291C93.1993 196.522 84.9314 190.997 77.967 184.033C71.0026 177.069 65.4781 168.801 61.709 159.701C57.9399 150.602 56 140.849 56 131L84.1405 131C84.1405 137.154 85.3526 143.247 87.7075 148.932C90.0624 154.618 93.514 159.783 97.8653 164.135C102.217 168.486 107.382 171.938 113.068 174.293C118.753 176.647 124.846 177.859 131 177.859C137.154 177.859 143.247 176.647 148.932 174.293C154.618 171.938 159.783 168.486 164.135 164.135C168.486 159.783 171.938 154.618 174.293 148.932C176.647 143.247 177.859 137.154 177.859 131H206Z" fill="#71EEB8"/>
<circle cx="192.5" cy="98.5" r="16.5" fill="#71EEB8"/>
<defs>
<linearGradient id="paint0_linear_201_7" x1="0" y1="0" x2="262" y2="262" gradientUnits="userSpaceOnUse">
<stop stop-color="#0075FF"/>
<stop offset="1" stop-color="#004BA4"/>
</linearGradient>
</defs>
</svg>
