<svg width="921" height="195" viewBox="0 0 921 195" fill="none" xmlns="http://www.w3.org/2000/svg">
<path d="M150 75C150 84.8491 148.06 94.6018 144.291 103.701C140.522 112.801 134.997 121.069 128.033 128.033C121.069 134.997 112.801 140.522 103.701 144.291C94.6018 148.06 84.8491 150 75 150C65.1509 150 55.3982 148.06 46.2987 144.291C37.1993 140.522 28.9314 134.997 21.967 128.033C15.0026 121.069 9.47814 112.801 5.70903 103.701C1.93993 94.6018 -8.61039e-07 84.8491 0 75H28.1405C28.1405 81.1537 29.3526 87.2471 31.7075 92.9324C34.0624 98.6176 37.514 103.783 41.8653 108.135C46.2166 112.486 51.3824 115.938 57.0676 118.293C62.7529 120.647 68.8463 121.859 75 121.859C81.1537 121.859 87.2471 120.647 92.9324 118.293C98.6176 115.938 103.783 112.486 108.135 108.135C112.486 103.783 115.938 98.6176 118.293 92.9324C120.647 87.2471 121.859 81.1537 121.859 75H150Z" fill="#71EEB8"/>
<circle cx="136.5" cy="42.5" r="16.5" fill="#71EEB8"/>
<path d="M197.902 34.7154V150H221.271V81.675L256.435 132.641L291.376 81.675V150H314.967V34.7154H295.605L256.435 91.69L217.265 34.7154H197.902ZM332.871 34.938V150H408.985V126.632H356.239V103.263H406.982V81.675H356.239V58.3065H408.985V34.938H332.871ZM426.762 34.938V150H462.371C495.532 150.223 522.239 124.406 522.239 92.5803C522.239 60.5321 495.532 34.938 462.371 34.938H426.762ZM450.131 56.526H462.371C480.844 56.526 498.648 72.9953 498.648 92.5803C498.648 111.943 480.844 128.412 462.371 128.412H450.131V56.526ZM537.823 34.7154V150H561.192V34.7154H537.823ZM637.263 32.0448C603.657 32.0448 576.505 59.1967 576.505 92.5803C576.505 125.964 603.657 152.893 637.263 152.893C670.869 152.893 698.021 125.964 698.021 92.5803C698.021 59.1967 670.869 32.0448 637.263 32.0448ZM637.263 55.1907C657.738 55.1907 674.43 71.8825 674.43 92.5803C674.43 113.056 657.738 129.747 637.263 129.747C616.788 129.747 600.096 113.056 600.096 92.5803C600.096 71.8825 616.788 55.1907 637.263 55.1907ZM713.652 34.7154V150H790.212V126.632H737.688V34.7154H713.652ZM844.168 34.7154L802.327 150H827.254L836.156 125.296H877.329L886.231 150H911.158L869.094 34.7154H844.168ZM856.631 68.9892L868.649 101.928H844.836L856.631 68.9892Z" fill="#0075FF"/>
</svg>
